<?xml version="1.0" encoding="utf-8"?>
<!-- Generator: Adobe Illustrator 24.0.2, SVG Export Plug-In . SVG Version: 6.00 Build 0)  -->
<svg version="1.1"
	 id="svg2" xmlns:cc="http://creativecommons.org/ns#" xmlns:dc="http://purl.org/dc/elements/1.1/" xmlns:inkscape="http://www.inkscape.org/namespaces/inkscape" xmlns:rdf="http://www.w3.org/1999/02/22-rdf-syntax-ns#" xmlns:sodipodi="http://sodipodi.sourceforge.net/DTD/sodipodi-0.dtd" xmlns:svg="http://www.w3.org/2000/svg"
	 xmlns="http://www.w3.org/2000/svg" xmlns:xlink="http://www.w3.org/1999/xlink" x="0px" y="0px" viewBox="0 0 595.3 841.9"
	 style="enable-background:new 0 0 595.3 841.9;" xml:space="preserve">
<style type="text/css">
	.st0{fill:#E8EBE6;}
	.st1{stroke:#FFFFFF;stroke-width:15.9696;stroke-miterlimit:3.2;}
	.st2{stroke:#FFFFFF;stroke-width:11.8456;stroke-miterlimit:3.2;}
	.st3{stroke:#FFFFFF;stroke-width:17.2634;stroke-miterlimit:3.2;}
</style>
<sodipodi:namedview  bordercolor="#666666" borderopacity="1.0" id="base" inkscape:current-layer="g4216" inkscape:cx="485.59435" inkscape:cy="-168.71347" inkscape:document-units="px" inkscape:pageopacity="0.0" inkscape:pageshadow="2" inkscape:window-height="1416" inkscape:window-maximized="1" inkscape:window-width="2495" inkscape:window-x="65" inkscape:window-y="24" inkscape:zoom="0.35" pagecolor="#ffffff" showgrid="false">
	</sodipodi:namedview>
<g id="layer1" inkscape:groupmode="layer" inkscape:label="Layer 1">
	<g id="g4216">
		<path id="rect4512" class="st0" d="M138,565.3h313.8c11.4,0,20.7,9.3,20.7,20.7v28.5c0,11.4-9.3,20.7-20.7,20.7H138
			c-11.4,0-20.7-9.3-20.7-20.7V586C117.3,574.6,126.5,565.3,138,565.3z"/>
		<path id="rect4516" class="st0" d="M119.4,344.3l8.5-7.6c17.2-15.3,43.5-13.8,58.9,3.4l177.1,198.6c15.3,17.2,13.8,43.5-3.4,58.9
			l-8.5,7.6c-17.2,15.3-43.5,13.8-58.9-3.4L116,403.2C100.7,386,102.2,359.6,119.4,344.3z"/>
		<path id="rect4516-6" class="st0" d="M128.9,382.8l-4.5-6.4c-11.3-16-7-37.3,9.5-47.7l191.3-120.2c16.6-10.4,39.1-5.9,50.4,10.1
			l4.5,6.4c11.3,16,7,37.3-9.5,47.7L179.3,392.8C162.8,403.2,140.2,398.7,128.9,382.8z"/>
		<circle id="path4472-5-1" class="st1" cx="161.2" cy="377" r="52"/>
		<path id="rect4516-6-7" class="st0" d="M321.9,214.3l16-7.5c11.9-5.6,27-0.9,33.7,10.3l77.6,130.2c6.7,11.3,2.5,24.9-9.3,30.4
			l-16,7.5c-11.9,5.6-27,0.9-33.7-10.3l-77.6-130.2C305.8,233.5,310,219.9,321.9,214.3z"/>
		<circle id="path4472-5-1-2" class="st2" cx="345.6" cy="242.5" r="38.4"/>
		<path id="rect4160" class="st0" d="M361.4,384.5l112.6-63.1c3.8-2.2,8.7-0.8,10.9,3.1l9.3,16.6c2.2,3.8,0.8,8.7-3.1,10.9
			l-112.6,63.1c-3.8,2.2-8.7,0.8-10.9-3.1l-9.3-16.6C356.1,391.5,357.5,386.6,361.4,384.5z"/>
		<path id="rect4160-3" class="st0" d="M391.7,383.5l63.1,112.6c2.2,3.8,0.8,8.7-3.1,10.9l-16.6,9.3c-3.8,2.2-8.7,0.8-10.9-3.1
			l-63.1-112.6c-2.2-3.8-0.8-8.7,3.1-10.9l16.6-9.3C384.6,378.3,389.5,379.7,391.7,383.5z"/>
		<path id="rect4160-3-6" class="st0" d="M486.4,327l63.1,112.6c2.2,3.8,0.8,8.7-3.1,10.9l-16.6,9.3c-3.8,2.2-8.7,0.8-10.9-3.1
			l-63.1-112.6c-2.2-3.8-0.8-8.7,3.1-10.9l16.6-9.3C479.4,321.8,484.3,323.1,486.4,327z"/>
		<circle id="path4472-5-1-3" class="st3" cx="314.2" cy="564" r="56.2"/>
	</g>
</g>
</svg>
